<svg width="100" height="101" viewBox="0 0 100 101" fill="none" xmlns="http://www.w3.org/2000/svg">
<path d="M0 51.7673C0.73811 49.626 2.07088 48.1628 4.45735 48.0116C5.09113 47.9698 5.73535 48.1967 6.37696 48.2333C6.67951 48.2489 7.0942 48.2046 7.2846 48.0142C12.1932 43.1239 17.0783 38.2075 22.0129 33.2546C19.9733 29.444 20.2237 25.8552 23.4865 22.7698C25.4139 20.944 28.9976 19.64 33.2332 22.0629C33.4288 21.8856 33.6505 21.703 33.8513 21.5022C38.4974 16.851 43.146 12.2032 47.7972 7.55895C48.2354 7.12339 48.3762 6.7765 48.1676 6.14011C47.8461 5.12124 47.8819 4.02322 48.2688 3.02739C48.6558 2.03157 49.3708 1.19751 50.2958 0.662964C51.2002 0.129719 52.2548 -0.0911915 53.2972 0.0343031C54.3395 0.159798 55.3116 0.624726 56.0635 1.35739C56.8155 2.09005 57.3055 3.04974 57.458 4.08846C57.6105 5.12718 57.4171 6.18723 56.9075 7.10513C56.4146 8.03386 55.6202 8.76713 54.655 9.18428C53.6899 9.60144 52.6115 9.67763 51.5973 9.40031C50.7966 9.17079 50.3688 9.38205 49.842 9.92194C47.4712 12.3345 45.0586 14.7079 42.6617 17.097C42.4374 17.3213 42.2262 17.5534 41.9001 17.8951C58.2664 11.5807 73.5032 13.3908 87.989 23.4661C88.6828 22.7202 89.4287 21.8725 90.2242 21.0745C91.184 20.1146 91.9508 20.1173 92.9106 21.0745C95.0354 23.1818 97.1523 25.2988 99.2615 27.4253C100.258 28.4295 100.245 29.1624 99.2302 30.1822C97.1436 32.2809 95.0502 34.3743 92.9497 36.4626C91.9534 37.4511 91.1944 37.4459 90.1851 36.4626C88.0777 34.3761 85.9755 32.2896 83.8785 30.203C82.8535 29.1806 82.8718 28.4112 83.9203 27.3732C84.4419 26.8515 84.9896 26.3299 85.5321 25.8083C71.774 15.1565 50.8592 14.3402 35.8961 24.9632C37.4324 28.6381 37.0594 32.0053 34.0131 34.8064C31.6318 36.9869 28.7393 37.279 24.9784 35.9019C15.2473 48.9583 14.1049 70.2253 25.8208 85.6395C26.405 84.9927 26.9397 84.3354 27.5422 83.746C28.3612 82.9453 29.2193 82.9427 30.0304 83.746C32.2456 85.9508 34.4443 88.1686 36.6264 90.3994C37.3359 91.1271 37.3906 91.98 36.7125 92.6607C34.2634 95.1254 31.7753 97.551 29.3027 99.9923H28.3273C28.0298 99.7958 27.7457 99.5797 27.477 99.3454C25.3001 97.1928 23.1344 95.0315 20.9801 92.8615C20.0829 91.9565 20.1011 91.1741 21.0348 90.2534C21.8381 89.4579 22.691 88.7119 23.45 88.013C13.3877 73.5298 11.562 58.2903 17.7486 42.0024C15.0465 44.6105 12.4383 47.2917 9.78322 49.9207C9.26159 50.4267 9.17291 50.831 9.37113 51.5195C9.70624 52.6898 9.57369 53.9445 9.00146 55.0189C8.42922 56.0933 7.46203 56.9034 6.30393 57.2784C5.16952 57.6672 3.9303 57.6148 2.83279 57.1315C1.73528 56.6482 0.859898 55.7695 0.380792 54.6702C0.266033 54.4094 0.119976 54.1642 0 53.9138L0 51.7673ZM33.6453 28.7555C33.6436 28.1117 33.5146 27.4745 33.2657 26.8808C33.0168 26.287 32.6529 25.7483 32.195 25.2957C31.7371 24.8432 31.1942 24.4856 30.5975 24.2437C30.0009 24.0017 29.3623 23.8802 28.7185 23.8861C27.4331 23.9123 26.2083 24.4371 25.3026 25.3496C24.3969 26.2621 23.8813 27.4908 23.8647 28.7764C23.8654 29.4202 23.993 30.0577 24.2403 30.6522C24.4876 31.2467 24.8496 31.7867 25.3058 32.2411C25.7619 32.6956 26.3032 33.0556 26.8986 33.3007C27.4941 33.5457 28.132 33.671 28.7759 33.6693C29.4207 33.675 30.0601 33.5514 30.6563 33.3059C31.2526 33.0604 31.7936 32.698 32.2475 32.2399C32.7014 31.7819 33.0589 31.2376 33.299 30.6392C33.5391 30.0407 33.6568 29.4002 33.6453 28.7555ZM28.8306 87.1497L24.4176 91.5575L28.7863 95.9626L33.2202 91.5288L28.8306 87.1497ZM87.217 28.672L91.5726 33.0303C93.0019 31.614 94.5042 30.1196 95.8735 28.7607L91.5048 24.3868L87.217 28.672ZM54.3906 4.83342C54.3927 4.39092 54.2193 3.96564 53.9083 3.65079C53.5974 3.33594 53.1743 3.15721 52.7318 3.15376C52.3026 3.16358 51.894 3.33942 51.5917 3.6443C51.2895 3.94918 51.1172 4.35937 51.1112 4.78863C51.1051 5.21789 51.2657 5.63279 51.5591 5.94611C51.8526 6.25943 52.2562 6.44676 52.6849 6.46874C52.9046 6.47463 53.1233 6.43687 53.3283 6.35765C53.5333 6.27842 53.7205 6.15931 53.8792 6.00721C54.0378 5.85512 54.1647 5.67305 54.2525 5.47156C54.3403 5.27008 54.3873 5.05317 54.3906 4.83342ZM4.78859 51.1309C4.5843 51.1198 4.37997 51.1521 4.18909 51.2257C3.9982 51.2994 3.82508 51.4126 3.68116 51.558C3.53723 51.7034 3.42576 51.8777 3.3541 52.0693C3.28244 52.2609 3.25222 52.4656 3.26542 52.6697C3.26393 53.097 3.42996 53.5078 3.72789 53.814C4.02582 54.1202 4.4319 54.2974 4.85901 54.3077C5.07202 54.3177 5.28475 54.2826 5.48328 54.2047C5.6818 54.1269 5.86166 54.008 6.01109 53.8558C6.16052 53.7037 6.27616 53.5217 6.35044 53.3218C6.42472 53.1219 6.45598 52.9086 6.44216 52.6958C6.42652 52.2704 6.2445 51.868 5.93526 51.5754C5.62602 51.2827 5.21428 51.1231 4.78859 51.1309Z" fill="#06B6D4"/>
<path d="M73.6196 99.9939C73.2388 99.5245 72.7615 99.1045 72.4902 98.5803C70.9914 95.6592 69.5239 92.7241 68.0876 89.7751C67.9608 89.4819 67.7745 89.2181 67.5407 89.0004C67.3068 88.7827 67.0304 88.6158 66.7288 88.5102C61.5646 86.5541 56.4161 84.5562 51.252 82.6027C50.8546 82.4715 50.4925 82.2513 50.1933 81.9589C49.894 81.6664 49.6656 81.3094 49.5253 80.9152C44.309 67.7892 39.0623 54.6701 33.7851 41.558C33.3652 40.5148 33.4773 39.7323 34.3067 38.9499C35.9368 37.4032 37.5069 35.7992 39.077 34.1926C39.3393 33.8795 39.6989 33.6633 40.0984 33.5787C40.4979 33.4941 40.9143 33.5458 41.2809 33.7257C54.5513 39.0359 67.826 44.3392 81.105 49.6355C81.9187 49.9589 82.3021 50.5458 82.5916 51.31C84.5452 56.4376 86.53 61.5574 88.4704 66.6981C88.5778 67.0145 88.749 67.3055 88.9733 67.5531C89.1976 67.8007 89.4703 67.9997 89.7745 68.1378C92.753 69.588 95.7133 71.0798 98.6762 72.5717C100.241 73.3541 100.416 74.3713 99.1717 75.618C91.3055 83.4895 83.4341 91.3574 75.5574 99.2219C75.2464 99.504 74.9208 99.7695 74.582 100.017L73.6196 99.9939ZM37.6921 40.074C37.1105 40.4261 36.8236 40.7912 37.134 41.5633C42.1521 54.0268 47.1615 66.5025 52.1622 78.9904C52.3592 79.4098 52.7036 79.7421 53.1298 79.9241C57.9367 81.815 62.7644 83.6486 67.5712 85.5291C68.1815 85.7664 68.5415 85.6725 69.0031 85.2109C74.3933 79.7859 79.7992 74.38 85.2207 68.9933C85.698 68.5212 85.7423 68.1483 85.5128 67.5562C83.6871 62.8615 81.8614 58.1668 80.0956 53.4721C79.9811 53.1256 79.7873 52.8106 79.5297 52.5521C79.272 52.2935 78.9577 52.0986 78.6116 51.9829C66.2993 47.0847 53.9949 42.164 41.6983 37.2207C40.9028 36.8999 40.4229 36.999 40.0994 37.6693L60.1823 57.7521C65.5447 54.4893 70.6332 56.9462 72.8136 59.9899C74.0906 61.7423 74.7069 63.8898 74.5536 66.0526C74.4002 68.2155 73.4872 70.2545 71.9758 71.8093C70.4645 73.364 68.4521 74.3344 66.2944 74.5489C64.1368 74.7633 61.9727 74.208 60.1849 72.9812C56.064 70.1487 55.2138 65.587 57.7593 60.1412L37.6921 40.074ZM74.4463 95.5288L95.5073 74.4757L88.074 70.759L70.7219 88.0877L74.4463 95.5288ZM59.319 65.3862C59.3138 66.5859 59.6646 67.7601 60.327 68.7603C60.9894 69.7606 61.9336 70.5419 63.0401 71.0054C64.1466 71.4689 65.3657 71.5937 66.5432 71.3642C67.7207 71.1346 68.8037 70.561 69.6551 69.7158C70.5065 68.8706 71.088 67.7919 71.3262 66.6161C71.5644 65.4403 71.4484 64.2203 70.993 63.1104C70.5376 62.0005 69.7633 61.0507 68.7679 60.381C67.7725 59.7113 66.6009 59.3519 65.4012 59.3483C64.6034 59.3375 63.8114 59.4861 63.0717 59.7851C62.3319 60.0842 61.6593 60.5279 61.0931 61.0902C60.527 61.6525 60.0787 62.322 59.7745 63.0597C59.4703 63.7974 59.3163 64.5883 59.3216 65.3862H59.319Z" fill="#06B6D4"/>
</svg>
